<svg id="Group_13" data-name="Group 13" xmlns="http://www.w3.org/2000/svg" xmlns:xlink="http://www.w3.org/1999/xlink" width="151.889" height="55.448" viewBox="0 0 151.889 55.448">
  <defs>
    <clipPath id="clip-path">
      <path id="Clip_11" data-name="Clip 11" d="M0,55.448H151.889V0H0Z" fill="none"/>
    </clipPath>
  </defs>
  <path id="Fill_1" data-name="Fill 1" d="M0,0H17.721V1.828H2.164V12.274H16.117v1.865H2.164V26.115H0Z" transform="translate(63.89 14.666)" fill="#faf9f6"/>
  <path id="Fill_2" data-name="Fill 2" d="M2.649,24.809H.56V6.827H2.649V24.808ZM1.6,3.171A1.474,1.474,0,0,1,0,1.567,1.443,1.443,0,0,1,1.6,0a1.443,1.443,0,0,1,1.6,1.567A1.474,1.474,0,0,1,1.6,3.171Z" transform="translate(85.453 15.972)" fill="#faf9f6"/>
  <path id="Fill_4" data-name="Fill 4" d="M1.828.411l.261,4.067C3.395,1.418,6.081,0,9.327,0c4.365,0,6.6,2.314,6.6,7.014V18.393H13.841V7.537c0-4.216-1.94-5.746-5.148-5.746-3.992,0-6.343,2.835-6.6,7.275v9.327H0V.411Z" transform="translate(95.526 22.388)" fill="#faf9f6"/>
  <path id="Fill_6" data-name="Fill 6" d="M11.64,15.968,4.775,26.116H0L9.215,12.8.56,0H5.633l6.38,9.738L18.318,0h4.775l-8.73,12.722,9.29,13.394H18.5Z" transform="translate(115.3 14.666)" fill="#0097ab"/>
  <path id="Fill_8" data-name="Fill 8" d="M4.71,4.11H3.793V0H5.279L6.322,2.845,7.239,0H8.756V4.108H7.84V1.138L6.8,4.109H5.753L4.71,1.138V4.109ZM2.15,4.078H1.17V.79H.032V0H3.288V.79H2.15V4.077Z" transform="translate(143.133 14.666)" fill="#faf9f6"/>
  <path id="Clip_11-2" data-name="Clip 11" d="M0,55.448H151.889V0H0Z" fill="none"/>
  <g id="Group_13-2" data-name="Group 13" clip-path="url(#clip-path)">
    <path id="Fill_10" data-name="Fill 10" d="M0,55.448H51.511V0H0Z" fill="#faf9f6"/>
    <path id="Fill_12" data-name="Fill 12" d="M5.966,36.836a8.184,8.184,0,0,1-3.9-.679A4.656,4.656,0,0,1,.239,34.092l2.3-1.879a4.5,4.5,0,0,0,3.4,1.521c1.4,0,2.207-.424,2.207-1.163s-.429-.831-1.576-1.111l-.094-.023-1.223-.3C2.331,30.4.657,28.761.657,26.635a3.8,3.8,0,0,1,1.491-2.993A6.584,6.584,0,0,1,6.324,22.37c3.533,0,4.219.869,5.219,2.534l-2.3,1.879a4.18,4.18,0,0,0-2.922-1.223c-1.179,0-1.909.526-1.909,1.014-.029.621.5,1,1.878,1.343l1.193.3c3.051.742,4.534,2.147,4.534,4.295C12.021,34.324,9.917,36.836,5.966,36.836Zm23.146-.447h-3.73V26.009H21.327V22.758H33.138v3.251H29.112V36.388ZM6.145,14.048a6.262,6.262,0,0,1-4.516-1.622A5.964,5.964,0,0,1,0,8.053V0H3.729V8.083a2.277,2.277,0,0,0,2.416,2.535A2.264,2.264,0,0,0,8.531,8.083V0h3.7V8.053a6.023,6.023,0,0,1-1.6,4.407A6.21,6.21,0,0,1,6.145,14.048ZM29.887,9.335H24.608V4.026h5.279V9.334Z" transform="translate(9.067 9.306)" fill="#1d242c"/>
  </g>
</svg>
